<?xml version="1.0" encoding="UTF-8" standalone="no"?>
<svg
   xmlns:dc="http://purl.org/dc/elements/1.1/"
   xmlns:cc="http://web.resource.org/cc/"
   xmlns:rdf="http://www.w3.org/1999/02/22-rdf-syntax-ns#"
   xmlns:svg="http://www.w3.org/2000/svg"
   xmlns="http://www.w3.org/2000/svg"
   xmlns:sodipodi="http://sodipodi.sourceforge.net/DTD/sodipodi-0.dtd"
   xmlns:inkscape="http://www.inkscape.org/namespaces/inkscape"
   width="152.91451"
   height="158.08925"
   viewBox="0 0 360.267 93.793"
   id="svg2"
   sodipodi:version="0.32"
   inkscape:version="0.45"
   inkscape:output_extension="org.inkscape.output.svg.inkscape"
   sodipodi:docbase="/home/brunner/Desktop"
   sodipodi:docname="Ubuntu_Logo.svg"
   sodipodi:modified="true"
   version="1.0">
  <metadata
     id="metadata31">
    <rdf:RDF>
      <cc:Work
         rdf:about="">
        <dc:format>image/svg+xml</dc:format>
        <dc:type
           rdf:resource="http://purl.org/dc/dcmitype/StillImage" />
      </cc:Work>
    </rdf:RDF>
  </metadata>
  <defs
     id="defs29" />
  <sodipodi:namedview
     inkscape:window-height="611"
     inkscape:window-width="1020"
     inkscape:pageshadow="2"
     inkscape:pageopacity="0.0"
     guidetolerance="10.0"
     gridtolerance="10.0"
     objecttolerance="10.0"
     borderopacity="1.0"
     bordercolor="#666666"
     pagecolor="#ffffff"
     id="base"
     width="158.1px"
     height="158.1px"
     inkscape:zoom="1.0933875"
     inkscape:cx="303.64349"
     inkscape:cy="78.590702"
     inkscape:window-x="522"
     inkscape:window-y="246"
     inkscape:current-layer="svg2" />
  <circle
     cx="9.1239996"
     cy="46.903999"
     r="9.1239996"
     id="circle4"
     sodipodi:cx="9.1239996"
     sodipodi:cy="46.903999"
     sodipodi:rx="9.1239996"
     sodipodi:ry="9.1239996"
     style="fill:#ff6309"
     transform="matrix(3.968999,0,0,3.968999,0,-139.13053)" />
  <circle
     cx="74.547997"
     cy="84.667"
     r="9.1239996"
     id="circle6"
     sodipodi:cx="74.547997"
     sodipodi:cy="84.667"
     sodipodi:rx="9.1239996"
     sodipodi:ry="9.1239996"
     style="fill:#ffb515"
     transform="matrix(3.968999,0,0,3.968999,0,-139.13053)" />
  <circle
     cx="74.540001"
     cy="9.1260004"
     r="9.1239996"
     id="circle8"
     sodipodi:cx="74.540001"
     sodipodi:cy="9.1260004"
     sodipodi:rx="9.1239996"
     sodipodi:ry="9.1239996"
     style="fill:#c90016"
     transform="matrix(3.968999,0,0,3.968999,0,-139.13053)" />
  <path
     d="M 209.3211,-42.576689 C 254.41292,-42.576689 291.82471,-9.0942128 298.02032,34.31473 L 360.06371,34.31473 C 357.24573,0.20515206 343.10417,-31.58653 319.46085,-56.658697 C 304.31911,-48.946932 285.70054,-48.800078 269.88408,-57.928776 C 254.05571,-67.069382 244.87145,-83.278773 243.99033,-100.26609 C 232.75409,-102.88563 221.14476,-104.24303 209.3211,-104.24303 C 186.68191,-104.24303 164.80478,-99.301623 144.90816,-89.930816 L 175.96957,-36.131034 C 186.28501,-40.282607 197.5411,-42.576689 209.3211,-42.576689 z "
     id="path10"
     style="fill:#ff6309" />
  <path
     d="M 119.7169,47.031403 C 119.7169,18.482393 133.1361,-6.9866742 153.99321,-23.406423 L 122.93974,-77.198267 C 115.65661,-72.11001 108.76643,-66.350993 102.34855,-59.937091 C 84.376918,-41.965463 71.489578,-20.266945 64.396977,3.4160722 C 78.685373,12.671778 88.147467,28.738286 88.147467,47.031403 C 88.147467,65.320551 78.685373,81.391027 64.396977,90.642764 C 71.489578,114.32578 84.376918,136.02429 102.34855,153.99592 C 108.76246,160.40983 115.6447,166.1609 122.92385,171.25313 L 153.9813,117.45732 C 133.12816,101.03757 119.7169,75.568506 119.7169,47.031403 z "
     id="path12"
     style="fill:#ffb515" />
  <path
     d="M 298.02429,59.708385 C 291.84455,103.1332 254.42483,136.63552 209.3211,136.63552 C 197.53317,136.63552 186.27311,134.34144 175.95767,130.18193 L 144.89229,183.98568 C 164.78493,193.36046 186.67001,198.30583 209.31713,198.30583 C 221.14873,198.30583 232.77394,196.9405 244.01415,194.32095 C 244.87939,177.31379 254.06763,161.07662 269.90789,151.93204 C 285.72833,142.79541 304.35484,142.94226 319.50054,150.6699 C 343.12403,125.59376 357.24969,93.806056 360.05975,59.708385 L 298.02429,59.708385 z "
     id="path14"
     style="fill:#c90016" />
</svg>
